<?xml version="1.0" encoding="UTF-8" standalone="no"?>
<svg
   xmlns:dc="http://purl.org/dc/elements/1.1/"
   xmlns:cc="http://creativecommons.org/ns#"
   xmlns:rdf="http://www.w3.org/1999/02/22-rdf-syntax-ns#"
   xmlns:svg="http://www.w3.org/2000/svg"
   xmlns="http://www.w3.org/2000/svg"
   xmlns:sodipodi="http://sodipodi.sourceforge.net/DTD/sodipodi-0.dtd"
   xmlns:inkscape="http://www.inkscape.org/namespaces/inkscape"
   inkscape:version="1.0beta2 (2b71d25, 2019-12-03)"
   sodipodi:docname="cannabis.svg"
   id="svg52"
   version="1.1"
   viewBox="0 0 978.55 928.93">
  <metadata
     id="metadata56">
    <rdf:RDF>
      <cc:Work
         rdf:about="">
        <dc:format>image/svg+xml</dc:format>
        <dc:type
           rdf:resource="http://purl.org/dc/dcmitype/StillImage" />
      </cc:Work>
    </rdf:RDF>
  </metadata>
  <sodipodi:namedview
     inkscape:current-layer="svg52"
     inkscape:window-maximized="0"
     inkscape:window-y="0"
     inkscape:window-x="0"
     inkscape:cy="464.465"
     inkscape:cx="489.27499"
     inkscape:zoom="0.6695876"
     showgrid="false"
     id="namedview54"
     inkscape:window-height="900"
     inkscape:window-width="1440"
     inkscape:pageshadow="2"
     inkscape:pageopacity="0"
     guidetolerance="10"
     gridtolerance="10"
     objecttolerance="10"
     borderopacity="1"
     inkscape:document-rotation="0"
     bordercolor="#666666"
     pagecolor="#ffffff" />
  <defs
     id="defs12">
    <style
       id="style10">.cls-1,.cls-2{fill:#fff;}.cls-1{opacity:0.6;}</style>
  </defs>
  <title
     id="title14">Fichier 17</title>
  <g
     inkscape:export-ydpi="500"
     inkscape:export-xdpi="500"
     inkscape:export-filename="/Users/ivanezqrom/Desktop/cann.png"
     data-name="Calque 2"
     id="Calque_2">
    <g
       data-name="Calque 4"
       id="Calque_4">
      <path
         id="path16"
         d="M597.44.27,597.5,0c-16.25,14.14-38,33.71-62.57,58-4.2,4.16-48.91,48.51-83.17,90.09-32.69,39.67-94.3,114.43-130,224.72-29,89.74-28.09,164-27.56,201.5,2.32,166.13,65.32,280,74.46,295.91l-.06.24c60.49-47.72,192.68-165,253.14-350.68C635,479.13,658.63,406.6,655.34,311.59c-1.78-51.35-11.11-96.89-29.76-188C615,72.22,604.88,29.82,597.44.27Z"
         class="cls-1" />
      <path
         id="path18"
         d="M224.14,135.86l0-.22a830.55,830.55,0,0,0-37.53,121.06c-11,48.07-28,125.54-19.18,224.64,3.31,37.13,10.39,109.57,49,193.37C260.93,771.44,325,834.56,368.57,870.24l0,.2c13.6-20.34,107.42-166.09,71.12-379.21-6.59-38.67-14.42-98.1-52.52-160.93-15.59-25.71-36.72-50.61-78.34-99.37C274.74,190.94,245.27,158.56,224.14,135.86Z"
         class="cls-1" />
      <path
         id="path20"
         d="M.12,333.53,0,333.36C.06,349,.52,370.1,2.2,395.1c.29,4.27,3.44,49.74,10,88.17,6.27,36.67,18.08,105.78,61.62,177.49,35.43,58.35,76.55,93,97.35,110.41,92.1,77.31,184.31,96.68,197.32,99.18l.1.14c2.47-55.7.78-183.57-72.36-304.54-16-26.51-44.59-73.75-98.19-116.88-29-23.32-58.33-39.75-117-72.61C47.86,357.91,19.82,343.42.12,333.53Z"
         class="cls-1" />
      <path
         id="path22"
         d="M978.55,457.13a1070.35,1070.35,0,0,0-157.65,23c-7.46,1.66-121.36,27.43-194.38,63.38C469.32,620.86,394.84,797.94,368.77,870.27l-.17.11a698.84,698.84,0,0,0,151.65.5c55.22-6,131.12-15.8,211-64.2,54.71-33.14,88.68-70.84,112.78-98,10.84-12.21,52-59.66,88.9-133.19A654.11,654.11,0,0,0,978.55,457.13Z"
         class="cls-1" />
      <path
         id="path24"
         d="M935.52,132.66c-26,11.81-63.4,29-108,50.56-34.43,16.62-76.42,36.88-104.71,52.09C679,258.85,591,305.72,516.48,392.91c-61.26,71.72-88.9,140.65-102.81,175.48C352,722.68,366.46,852.05,368.81,870.21l-.14.2a1327.13,1327.13,0,0,0,164.2-77.17c87.18-48.48,153.66-85.46,218.46-159,21.2-24.07,73.65-84.72,106.86-176.74,16.1-44.61,17.05-67.13,42.35-179.57C914.64,215.2,927.3,164.63,935.52,132.66Z"
         class="cls-1" />
      <path
         id="path26"
         d="M610.28,552C464.19,633.16,393.94,800.38,368.74,870.24v0l0,.05h0l-.09.12h0l.14-.06C425.78,825.41,546,719,610.28,552Z"
         class="cls-2" />
      <path
         id="path28"
         d="M368.47,870c2.45-55.88.62-183.46-72.38-304.19l-2.14-3.54c0,4.31.08,8.31.14,11.95C296.39,739.9,359.09,853.66,368.47,870Z"
         class="cls-2" />
      <path
         id="path30"
         d="M368.68,870.54c13.91-20.85,103.06-160.48,73.08-365.23-13.23,26-22.06,48.07-28.21,63.46C351.95,722.93,366.32,852.21,368.68,870.54Z"
         class="cls-2" />
      <path
         id="path32"
         d="M14.51,691.77l-.11-.05c4.83,7.85,11.57,18.4,20.13,30.58,1.46,2.08,17.07,24.22,32.26,42,14.5,16.92,41.82,48.83,86.2,74.1,36.12,20.56,67.85,27.73,83.88,31.33,71,15.95,124.23,2.64,131.67.65l.1,0c-15.87-28.71-56.09-92.78-130.81-135.49-16.37-9.36-45.55-26-86.3-34.38-22-4.51-42.13-5.45-82.35-7.33C46.49,692.12,27.66,691.83,14.51,691.77Z"
         class="cls-1" />
      <path
         id="path34"
         d="M820.81,829.51a732.62,732.62,0,0,0-91.65-27.45c-4.51-1-73.49-16.71-123.57-18-107.8-2.67-201.16,59.71-237,86.23h-.13A449.13,449.13,0,0,0,449.86,907c31.48,10.54,75.23,24.32,132.76,21.57,39.39-1.88,69-10.81,90.13-17.33a432.24,432.24,0,0,0,87.9-39A406.48,406.48,0,0,0,820.81,829.51Z"
         class="cls-1" />
      <path
         id="path36"
         d="M368.6,870.33l-.07-.12,0,.1Z"
         class="cls-1" />
      <path
         id="path38"
         d="M256.26,746.29A561.53,561.53,0,0,0,368.52,870.18C354,843.87,319.1,788.22,256.26,746.29Z"
         class="cls-1" />
      <path
         id="path40"
         d="M537.66,790.58c-77.64,16.3-140.75,58.84-168.83,79.63l-.14.19a1327.12,1327.12,0,0,0,164.2-77.17Z"
         class="cls-2" />
      <path
         id="path42"
         d="M368.6,870.33l-.07-.12,0,.1Z"
         class="cls-1" />
      <path
         id="path44"
         d="M256.26,746.29A561.53,561.53,0,0,0,368.52,870.18C354,843.87,319.1,788.22,256.26,746.29Z"
         class="cls-1" />
      <path
         id="path46"
         d="M368.6,870.33l-.07-.12,0,.1Z"
         class="cls-1" />
      <path
         id="path48"
         d="M256.26,746.29A561.53,561.53,0,0,0,368.52,870.18C354,843.87,319.1,788.22,256.26,746.29Z"
         class="cls-1" />
    </g>
  </g>
</svg>
