<svg xmlns="http://www.w3.org/2000/svg" viewBox="0 0 603.25 615.56"><defs><style>.cls-1{fill:#fff;}.cls-2{fill:none;stroke:#666;stroke-miterlimit:10;stroke-width:7px;}</style></defs><title>Fichier 5</title><g id="Calque_2" data-name="Calque 2"><g id="Calque_3" data-name="Calque 3"><path class="cls-1" d="M230.19,423.4c-33.47-19.41-46-56.3-47.84-62.68-11.68-39.72,3.07-72.45,6.84-80.23-3.85,5.57-26.28,39.19-16.5,82.8,7.52,33.52,31.06,56.34,52.48,68.76,7.57,4.39,33.3,18.86,67.29,14.72,53-6.46,80-52.6,83.11-58.18-5,6.64-34.49,44.55-84.56,48.28C283.07,437.46,257.09,439,230.19,423.4Z"/><path class="cls-1" d="M351.55,596.34A271.19,271.19,0,0,1,19.8,403.92c-2.45-9.23-13-50.78-6.86-105.6a305.5,305.5,0,0,1,30.3-102.48A250.34,250.34,0,0,0,3,296.94c-8.08,50.82,2,90.21,7.1,109.55A281.19,281.19,0,0,0,354.12,606c18.65-5,58.06-15.86,98.57-48.19a254.2,254.2,0,0,0,68.49-84.76,312.19,312.19,0,0,1-74.56,76.81C431,561.18,399.46,583.6,351.55,596.34Z"/><path class="cls-1" d="M202.82,470.58c-51.89-30.09-70.71-87.28-73.17-95.86-17.44-61,6.37-110.7,12-121.79a129.58,129.58,0,0,0-21.86,39.88c-12.17,36.37-4.23,67.91.18,84.48A167.07,167.07,0,0,0,197.8,479.23c35,20.3,69.62,22.64,90,22,12.65-.43,39.63-1.64,69.39-17.24,39.73-20.83,58.89-53.94,65.9-67.81A184.26,184.26,0,0,1,354.69,474c-31.87,15.5-59.41,17.12-65.13,17.39C273,492.16,238.35,491.19,202.82,470.58Z"/><path class="cls-1" d="M337.12,542a215,215,0,0,1-263-152.54c-9.93-37.37-7.11-67.4-5.44-83.72a256.1,256.1,0,0,1,22.7-82,197.77,197.77,0,0,0-32.62,80.66c-6.54,40.37,1.46,71.71,5.69,87.63A225,225,0,0,0,339.68,551.69c15.7-4.17,47-12.82,78.88-38.57a199,199,0,0,0,54-68.25,258.49,258.49,0,0,1-60.12,60.3C398.89,514.89,374.32,532.14,337.12,542Z"/><path class="cls-1" d="M254.58,381.34c-17.53-10.17-23.33-27.15-25.27-33.1-6.69-20.59-.6-38.2,1.5-43.6-2.24,2.92-16.08,21.58-11.16,46.16s25,36.36,29.91,39.19c5.32,3.08,23.93,13.48,46.85,7,25.38-7.16,35.9-29.31,37.4-32.62-4.08,4.76-17.16,18.76-39,22.71C288.18,388.3,271.39,391.09,254.58,381.34Z"/><path class="cls-1" d="M271.5,352.16a25.16,25.16,0,0,1-9.68-29.55c-7.17,11.69-3.62,26.87,7.17,33.87,11.52,7.48,28,3.52,35.13-9.34A25.21,25.21,0,0,1,271.5,352.16Z"/><path class="cls-1" d="M274.49,345.47"/><path class="cls-1" d="M282.6,341.53"/><path class="cls-1" d="M295.35,314.63A25.16,25.16,0,0,1,305,344.17c7.17-11.69,3.62-26.87-7.17-33.87-11.52-7.48-28-3.52-35.13,9.34A25.21,25.21,0,0,1,295.35,314.63Z"/><path class="cls-1" d="M357.15,364.73a110.18,110.18,0,0,0,4.27-21.68,76.66,76.66,0,0,0,.13-10.47l-.19-2.59-.34-2.57a46.34,46.34,0,0,0-.84-5.08,77.57,77.57,0,0,0-7-19.6A139.24,139.24,0,0,0,341.24,284c7.27,3,13.46,8.23,18.5,14.43A52.37,52.37,0,0,1,370,320.32a49.82,49.82,0,0,1,.86,6.07l.2,3.06c0,1,0,2,0,3.06a50.44,50.44,0,0,1-1.9,12,47.69,47.69,0,0,1-4.68,11A39.67,39.67,0,0,1,357.15,364.73Z"/><path class="cls-1" d="M223.88,287.89a39,39,0,0,1,3.27-11.28,50.89,50.89,0,0,1,6.16-10.2,53.36,53.36,0,0,1,18.8-15.07,56.53,56.53,0,0,1,11.5-4,54.84,54.84,0,0,1,12-1.25,50.74,50.74,0,0,1,11.82,1.58,38.94,38.94,0,0,1,10.84,4.52,118.54,118.54,0,0,0-22,1.74,92.43,92.43,0,0,0-10.19,2.57c-.82.3-1.64.56-2.46.84s-1.61.64-2.42.94c-1.63.57-3.18,1.35-4.75,2.06A79.64,79.64,0,0,0,239,271.78,116.43,116.43,0,0,0,223.88,287.89Z"/><path class="cls-1" d="M329.16,316.17a72.58,72.58,0,0,0-10.81-15.49,64.8,64.8,0,0,0-13.65-11.16,68.19,68.19,0,0,0-16.21-7.05,99.64,99.64,0,0,0-18.76-3.33,22.89,22.89,0,0,1,4.63-2.23c.81-.31,1.63-.56,2.45-.8s1.67-.43,2.51-.62a41,41,0,0,1,10.4-.79A43.71,43.71,0,0,1,309.91,281a43,43,0,0,1,14.81,15.13,37.65,37.65,0,0,1,3.86,9.77c.2.85.35,1.71.5,2.56s.24,1.71.27,2.58A22,22,0,0,1,329.16,316.17Z"/><path class="cls-1" d="M386,288.13a174.08,174.08,0,0,0-19.88-26.63,118.1,118.1,0,0,0-54-33.64,170.1,170.1,0,0,0-32.67-6,74,74,0,0,1,17-2.65,86.78,86.78,0,0,1,17.39,1,87.77,87.77,0,0,1,32.86,12.31,88.76,88.76,0,0,1,25.5,24.09,87.45,87.45,0,0,1,8.58,15.14A75.61,75.61,0,0,1,386,288.13Z"/><path class="cls-1" d="M433.72,393.84c6.14-14.45,10.48-29.27,12-44.29a121.66,121.66,0,0,0-3.3-44.49c-.49-1.8-.94-3.61-1.54-5.38l-.84-2.67-1-2.64c-1.21-3.54-2.71-7-4.22-10.41A160.9,160.9,0,0,0,424,264.15c-2.06-3.19-4.25-6.31-6.5-9.4s-4.65-6.09-7.11-9a215.65,215.65,0,0,0-15.81-17.11c1.75.91,3.42,1.94,5.11,3s3.29,2.18,4.9,3.32a118.1,118.1,0,0,1,9.32,7.37c3,2.62,5.86,5.37,8.62,8.25s5.38,5.9,7.86,9a125.71,125.71,0,0,1,13.07,20.26c1.8,3.62,3.49,7.3,4.94,11.1l1.07,2.85.95,2.9c.66,1.92,1.19,3.89,1.73,5.85a105.59,105.59,0,0,1,1.37,48.25A103.16,103.16,0,0,1,433.72,393.84Z"/><path class="cls-1" d="M146.43,249.64a101.11,101.11,0,0,1,16.3-31.51A118.58,118.58,0,0,1,220.57,177a101.55,101.55,0,0,1,35.1-5.17c-5.6,1.9-11.1,3.71-16.47,5.79s-10.63,4.27-15.75,6.7a187.19,187.19,0,0,0-29.15,17,183.76,183.76,0,0,0-25.61,21.93A262.57,262.57,0,0,0,146.43,249.64Z"/><path class="cls-1" d="M351.32,133.89a358.87,358.87,0,0,0-37.62-7.57,249.08,249.08,0,0,0-37.58-2.42q-9.4.08-18.78.93c-3.14.21-6.25.66-9.38,1s-6.25.83-9.36,1.35a379.31,379.31,0,0,0-37.49,8.25,129.89,129.89,0,0,1,35.79-15.93,142.32,142.32,0,0,1,19.35-4.07c3.27-.52,6.56-.77,9.85-1.1,1.65-.12,3.3-.17,5-.26l2.48-.12,2.48,0a150.08,150.08,0,0,1,39.23,4.73A128.5,128.5,0,0,1,351.32,133.89Z"/><path class="cls-1" d="M465.68,423c1.58-5.2,3.23-10.25,4.7-15.33s2.86-10.13,4.07-15.2,2.29-10.15,3.2-15.24,1.71-10.2,2.28-15.33a254.72,254.72,0,0,0,1.74-31c0-10.44-.69-20.91-1.43-31.73a104.31,104.31,0,0,1,9.27,31.15,126,126,0,0,1,.35,32.76c-.31,2.72-.76,5.43-1.2,8.13s-1.05,5.38-1.75,8a126.13,126.13,0,0,1-5,15.62A104.92,104.92,0,0,1,465.68,423Z"/><path class="cls-1" d="M481.21,218.63c-3.79-4.91-7.46-9.77-11.34-14.42S462,195,457.94,190.69s-8.37-8.5-12.77-12.49-8.94-7.8-13.65-11.4a224.26,224.26,0,0,0-29.86-19.4,326.33,326.33,0,0,0-33-15.34,101.85,101.85,0,0,1,18.42,2.63A126,126,0,0,1,405,140.28a134.65,134.65,0,0,1,32.63,18.61A136.15,136.15,0,0,1,464,185.67,116.06,116.06,0,0,1,481.21,218.63Z"/><path class="cls-1" d="M273.21,94.65c-9.41.79-18.51,1.21-27.51,2.11s-17.87,2-26.62,3.64a238.48,238.48,0,0,0-26,6.3c-8.61,2.57-17.07,5.75-25.87,9.18a78.71,78.71,0,0,1,23-16.49,104.82,104.82,0,0,1,27.09-8.82,114.53,114.53,0,0,1,28.35-1.64A96.64,96.64,0,0,1,273.21,94.65Z"/><path class="cls-1" d="M178.72,152.56c-4.78,5-9.54,9.31-14.07,13.83s-8.93,9-13.18,13.62-8.34,9.4-12.38,14.34-8,10-12.53,15.24a56.37,56.37,0,0,1,5.92-19.5,74.8,74.8,0,0,1,27.36-29.88A56.78,56.78,0,0,1,178.72,152.56Z"/><path class="cls-2" d="M37.27,181.55"/><path class="cls-1" d="M46.34,178.39a122.25,122.25,0,0,1,16.42-33.31,145.27,145.27,0,0,1,25.1-27.79c2.37-2,4.84-4,7.31-5.9s5.07-3.69,7.7-5.38a142.76,142.76,0,0,1,16.32-9.22,121.6,121.6,0,0,1,35.45-11.06c-11,5.7-21.56,11.45-31.63,17.94a253.41,253.41,0,0,0-28.65,21.23,256,256,0,0,0-25.42,25c-4,4.47-7.8,9.11-11.55,13.86S50,173.43,46.34,178.39Z"/><path class="cls-1" d="M443.67,101.8c-9.81-6.09-19.32-12.06-29.12-17.43q-7.32-4.06-14.8-7.71c-5-2.44-10-4.78-15.12-6.91a317.27,317.27,0,0,0-31.29-11.41c-10.67-3.32-21.57-6-32.76-8.85a122.75,122.75,0,0,1,34.58,1.2,148.43,148.43,0,0,1,33.39,9.86c2.68,1.13,5.31,2.38,7.94,3.63s5.19,2.63,7.7,4.11a142.34,142.34,0,0,1,14.61,9.48A124,124,0,0,1,443.67,101.8Z"/><path class="cls-1" d="M563.11,335.18a139.15,139.15,0,0,0,6.61-30.95,103.52,103.52,0,0,0,.33-15.34L570,287l-.18-1.9-.37-3.79-.57-3.76-.28-1.88-.42-1.85a103,103,0,0,0-10.34-28.64,138.24,138.24,0,0,0-18.21-25.86A70.79,70.79,0,0,1,564.47,241,78.3,78.3,0,0,1,578,271.84l.43,2.08.29,2.11.55,4.22c.1,1.42.15,2.83.23,4.25l.11,2.12-.05,2.12c-.05,1.42-.06,2.83-.15,4.24s-.28,2.81-.42,4.21c-.06.7-.16,1.4-.28,2.09l-.35,2.08-.37,2.07-.48,2.05A71.41,71.41,0,0,1,563.11,335.18Z"/><path class="cls-1" d="M601.94,256.75a228.73,228.73,0,0,0-8.42-34.52,169.85,169.85,0,0,0-14.31-31.57,173,173,0,0,0-20.46-28,235.49,235.49,0,0,0-25.85-24.4,88.28,88.28,0,0,1,16.48,7.91,110.22,110.22,0,0,1,14.88,10.87,114.58,114.58,0,0,1,36.83,63.14A99.32,99.32,0,0,1,601.94,256.75Z"/><path class="cls-1" d="M348.94,24.78a293,293,0,0,0-37.64-10.5c-3.14-.69-6.32-1.16-9.46-1.73-3.18-.42-6.32-1-9.51-1.26s-6.35-.62-9.52-.88L278,10.16c-1.59-.09-3.18-.17-4.77-.14l-4.78-.07c-1.59,0-3.18.09-4.78.12-3.19,0-6.37.23-9.55.44-6.37.45-12.72,1.24-19.06,2.26a284,284,0,0,0-38,9.21A119.85,119.85,0,0,1,233.37,5.1a134.77,134.77,0,0,1,19.83-4q5-.63,10.11-.87C265,.13,266.69,0,268.38,0l5.08,0c1.69,0,3.38.1,5.07.21s3.38.18,5.06.34c3.36.42,6.73.7,10.06,1.34A131.13,131.13,0,0,1,313.29,6.7,122.18,122.18,0,0,1,348.94,24.78Z"/><path class="cls-1" d="M536.86,490.78A309.37,309.37,0,0,0,557,459.67a218.94,218.94,0,0,0,15-33c.5-1.42,1-2.84,1.52-4.27l1.37-4.32c.5-1.43.87-2.89,1.31-4.34l.64-2.18.58-2.19c.83-2.91,1.47-5.87,2.2-8.82s1.27-5.94,1.81-8.94a314.24,314.24,0,0,0,4.3-36.8,116.38,116.38,0,0,1,3.51,37.75,129.22,129.22,0,0,1-2.58,19c-.29,1.58-.67,3.13-1.07,4.68s-.74,3.12-1.21,4.65l-1.39,4.6c-.5,1.52-1,3-1.56,4.55a136,136,0,0,1-17.84,33.87,127.77,127.77,0,0,1-12.31,14.58A103.34,103.34,0,0,1,536.86,490.78Z"/><path class="cls-1" d="M77,87.25A142.13,142.13,0,0,1,97.57,60.88a184,184,0,0,1,54.56-38.46,141.7,141.7,0,0,1,31.75-10.48c-9.44,6-18.84,11.55-28,17.4s-18.19,11.78-27,18-17.48,12.68-26,19.38S85.84,80.37,77,87.25Z"/><path class="cls-1" d="M504.86,464.74c3.8-7.3,7.74-14.09,11.37-21S523.34,430,526.54,423s6.21-14.1,9-21.37,5.46-14.68,8.54-22.31a78.2,78.2,0,0,1-1,24.45,102.29,102.29,0,0,1-20.35,44.33A78.39,78.39,0,0,1,504.86,464.74Z"/><path class="cls-1" d="M400.85,201.62a181,181,0,0,0-28.66-17.85A135.08,135.08,0,0,0,341.29,173a143.88,143.88,0,0,0-16.16-2.41,138.9,138.9,0,0,0-16.44-.38,154.61,154.61,0,0,0-16.62,1.51c-5.57.8-11.13,1.93-16.8,3.18a83.81,83.81,0,0,1,32.61-12.51,94.71,94.71,0,0,1,17.76-1.27c3,.12,6,.3,8.92.66l2.22.27,2.2.39,4.41.79A96.45,96.45,0,0,1,376.11,177,85.43,85.43,0,0,1,400.85,201.62Z"/><path class="cls-1" d="M515.77,238.4c0-1.66,0-3.3-.14-4.94s-.15-3.26-.25-4.88c-.3-3.24-.55-6.45-1.06-9.62a121.3,121.3,0,0,0-4.1-18.57A112.22,112.22,0,0,0,503.29,183c-1.52-2.71-2.86-5.51-4.61-8.08-.85-1.29-1.56-2.68-2.53-3.89l-2.73-3.75a40.55,40.55,0,0,0-2.88-3.63c-1-1.17-2-2.39-3-3.53l-3.23-3.34c-.55-.55-1.05-1.14-1.63-1.65l-1.73-1.56a105.92,105.92,0,0,0-14.81-11.45c-1.35-.81-2.63-1.75-4-2.51L458,137.25l-4.24-2.2c-1.42-.72-2.88-1.37-4.33-2.07S446.49,131.7,445,131l-4.51-1.81c-1.52-.57-3-1.15-4.6-1.66s-3.11-1-4.69-1.55a66.45,66.45,0,0,1,9.95.51c1.66.19,3.3.47,5,.75s3.28.66,4.91,1.06,3.25.85,4.86,1.33l4.8,1.6c1.57.6,3.13,1.25,4.71,1.89s3.08,1.42,4.61,2.15a86.47,86.47,0,0,1,17.15,11.13l2,1.63c.66.55,1.25,1.18,1.88,1.76l3.71,3.58c1.18,1.25,2.27,2.59,3.4,3.88a45.27,45.27,0,0,1,3.25,4A93,93,0,0,1,511.85,179a90.08,90.08,0,0,1,6,19.57,88.12,88.12,0,0,1,1.37,20.19A75.54,75.54,0,0,1,515.77,238.4Z"/><path class="cls-1" d="M495.41,304.64A193.58,193.58,0,0,0,491.14,281q-1.46-5.65-3.36-11.07c-.35-.89-.66-1.8-1-2.7s-.72-1.77-1.07-2.66-.72-1.77-1.11-2.64-.74-1.76-1.18-2.61l-1.23-2.59c-.4-.87-.89-1.69-1.32-2.54-.83-1.73-1.85-3.34-2.77-5-1.93-3.31-4.07-6.51-6.31-9.69A196.63,196.63,0,0,0,456.51,221a57.67,57.67,0,0,1,21.23,13.35,69.32,69.32,0,0,1,8.33,9.69,74.64,74.64,0,0,1,6.43,11.1,73.41,73.41,0,0,1,4.33,12.08,70.28,70.28,0,0,1,2,12.61A57.89,57.89,0,0,1,495.41,304.64Z"/><path class="cls-1" d="M56.95,218.83c-.79-8.77,1.12-17.71,4.67-26a63.07,63.07,0,0,1,16-21.76,66.91,66.91,0,0,1,11.16-7.82,64.6,64.6,0,0,1,12.52-5.18c8.64-2.44,17.77-3.14,26.35-1.19a128.64,128.64,0,0,0-23.56,8.54,104,104,0,0,0-10.44,6c-.81.58-1.64,1.13-2.46,1.69s-1.58,1.2-2.38,1.78c-1.63,1.14-3.09,2.48-4.62,3.74a91.72,91.72,0,0,0-15.71,18A127.69,127.69,0,0,0,56.95,218.83Z"/><path class="cls-1" d="M158,67.68a46.38,46.38,0,0,1,12.31-14.49,58.07,58.07,0,0,1,16.8-9.32,56.15,56.15,0,0,1,19-3.3,44.14,44.14,0,0,1,18.65,3.9c-6.27,1.42-12.1,2.48-17.77,3.91a168.24,168.24,0,0,0-16.51,4.91c-5.37,1.91-10.68,4.07-16,6.54S163.88,65,158,67.68Z"/><path class="cls-1" d="M364.08,86.38c-9.26-3.57-18.11-7.17-27.16-10.1-4.51-1.48-9-2.9-13.55-4.11s-9.09-2.36-13.69-3.31a245,245,0,0,0-27.91-4.17c-9.45-.91-19-1.15-28.92-1.49a91.18,91.18,0,0,1,29-6.37,112.26,112.26,0,0,1,29.87,2.25c1.23.24,2.45.55,3.66.85s2.44.59,3.64.93c2.39.75,4.81,1.4,7.16,2.29A108,108,0,0,1,340,69.05a101.7,101.7,0,0,1,12.76,7.72A82.55,82.55,0,0,1,364.08,86.38Z"/><path class="cls-1" d="M501.55,116.34a292.56,292.56,0,0,0-16.18-24.45c-2.89-3.81-5.84-7.55-9-11.06-1.53-1.81-3.2-3.49-4.8-5.22l-2.5-2.51-1.25-1.26-1.31-1.2a169.43,169.43,0,0,0-22.23-17.72C436.35,47.54,427.87,42.84,419,38a85.43,85.43,0,0,1,29.1,8.09,96.71,96.71,0,0,1,25.24,17.31l1.4,1.33,1.34,1.39,2.66,2.78,2.49,2.93,1.24,1.47,1.16,1.53A92.64,92.64,0,0,1,492,87.69a89.22,89.22,0,0,1,6.08,13.95A76.24,76.24,0,0,1,501.55,116.34Z"/><path class="cls-1" d="M398.41,414a193.62,193.62,0,0,0,6.07-23.23q1.05-5.74,1.62-11.45c.06-1,.16-1.91.25-2.86s.1-1.91.15-2.86.09-1.91.11-2.86.07-1.91,0-2.86l0-2.86c0-1-.1-1.91-.13-2.86,0-1.91-.27-3.81-.4-5.72-.36-3.82-.95-7.62-1.65-11.45a196.46,196.46,0,0,0-6.09-23.23,57.67,57.67,0,0,1,13.64,21A69.29,69.29,0,0,1,415.46,355a74.61,74.61,0,0,1,1.16,12.78,73.43,73.43,0,0,1-1.15,12.78,70.23,70.23,0,0,1-3.45,12.3A57.89,57.89,0,0,1,398.41,414Z"/><path class="cls-1" d="M512.77,382.67c2.93-9,6.07-17.53,8.74-26.17s5.11-17.23,7-25.95a238.42,238.42,0,0,0,4.3-26.41c1-8.94,1.33-18,1.59-27.4a78.71,78.71,0,0,1,6.27,27.58,104.81,104.81,0,0,1-2.39,28.38,114.53,114.53,0,0,1-9.49,26.76A96.64,96.64,0,0,1,512.77,382.67Z"/><path class="cls-1" d="M174.87,268.26a72.18,72.18,0,0,1,11-20.31,85.08,85.08,0,0,1,16.47-16.46A75.28,75.28,0,0,1,223,220.4a53,53,0,0,1,23.09-2.81,218.33,218.33,0,0,0-19.87,10,186.55,186.55,0,0,0-17.87,11.89c-5.75,4.27-11.22,9-16.72,13.78l-8.23,7.42C180.61,263.18,177.86,265.76,174.87,268.26Z"/></g></g></svg>